<svg width="3344" height="738" viewBox="0 0 3344 738" fill="none" xmlns="http://www.w3.org/2000/svg">
<path d="M1024.05 571.68C987.184 571.68 955.355 563.659 928.56 547.616C901.936 531.573 881.371 509.131 866.864 480.288C852.528 451.445 845.36 417.909 845.36 379.68C845.36 341.451 852.528 307.915 866.864 279.072C881.371 250.229 901.936 227.787 928.56 211.744C955.355 195.701 987.184 187.68 1024.05 187.68C1066.37 187.68 1101.87 198.176 1130.54 219.168C1159.39 240.16 1179.7 268.576 1191.47 304.416L1121.33 323.872C1114.5 301.515 1102.98 284.192 1086.77 271.904C1070.55 259.445 1049.65 253.216 1024.05 253.216C1000.67 253.216 981.125 258.421 965.424 268.832C949.893 279.243 938.203 293.92 930.352 312.864C922.501 331.808 918.576 354.08 918.576 379.68C918.576 405.28 922.501 427.552 930.352 446.496C938.203 465.44 949.893 480.117 965.424 490.528C981.125 500.939 1000.67 506.144 1024.05 506.144C1049.65 506.144 1070.55 499.915 1086.77 487.456C1102.98 474.997 1114.5 457.675 1121.33 435.488L1191.47 454.944C1179.7 490.784 1159.39 519.2 1130.54 540.192C1101.87 561.184 1066.37 571.68 1024.05 571.68ZM1385.57 571.68C1348.7 571.68 1316.87 563.659 1290.08 547.616C1263.46 531.573 1242.89 509.131 1228.38 480.288C1214.05 451.445 1206.88 417.909 1206.88 379.68C1206.88 341.451 1214.05 307.915 1228.38 279.072C1242.89 250.229 1263.46 227.787 1290.08 211.744C1316.87 195.701 1348.7 187.68 1385.57 187.68C1427.89 187.68 1463.39 198.176 1492.06 219.168C1520.91 240.16 1541.22 268.576 1552.99 304.416L1482.85 323.872C1476.02 301.515 1464.5 284.192 1448.29 271.904C1432.07 259.445 1411.17 253.216 1385.57 253.216C1362.19 253.216 1342.65 258.421 1326.94 268.832C1311.41 279.243 1299.72 293.92 1291.87 312.864C1284.02 331.808 1280.1 354.08 1280.1 379.68C1280.1 405.28 1284.02 427.552 1291.87 446.496C1299.72 465.44 1311.41 480.117 1326.94 490.528C1342.65 500.939 1362.19 506.144 1385.57 506.144C1411.17 506.144 1432.07 499.915 1448.29 487.456C1464.5 474.997 1476.02 457.675 1482.85 435.488L1552.99 454.944C1541.22 490.784 1520.91 519.2 1492.06 540.192C1463.39 561.184 1427.89 571.68 1385.57 571.68ZM1810.16 571.68C1782.86 571.68 1758.2 566.901 1736.18 557.344C1714.33 547.616 1696.33 533.792 1682.16 515.872C1668.17 497.781 1659.29 476.277 1655.54 451.36L1728.24 440.608C1733.36 461.771 1743.95 478.069 1759.99 489.504C1776.03 500.939 1794.29 506.656 1814.77 506.656C1826.21 506.656 1837.3 504.864 1848.05 501.28C1858.8 497.696 1867.59 492.405 1874.42 485.408C1881.42 478.411 1884.92 469.792 1884.92 459.552C1884.92 455.797 1884.32 452.213 1883.12 448.8C1882.1 445.216 1880.31 441.888 1877.75 438.816C1875.19 435.744 1871.52 432.843 1866.74 430.112C1862.13 427.381 1856.24 424.907 1849.08 422.688L1753.33 394.528C1746.16 392.48 1737.8 389.579 1728.24 385.824C1718.86 382.069 1709.73 376.693 1700.85 369.696C1691.98 362.699 1684.55 353.483 1678.58 342.048C1672.78 330.443 1669.88 315.851 1669.88 298.272C1669.88 273.525 1676.11 252.96 1688.56 236.576C1701.02 220.192 1717.66 207.989 1738.48 199.968C1759.31 191.947 1782.35 188.021 1807.6 188.192C1833.03 188.533 1855.73 192.885 1875.7 201.248C1895.67 209.611 1912.39 221.813 1925.88 237.856C1939.36 253.728 1949.09 273.184 1955.06 296.224L1879.8 309.024C1877.07 297.077 1872.03 287.008 1864.69 278.816C1857.35 270.624 1848.56 264.395 1838.32 260.128C1828.25 255.861 1817.67 253.557 1806.58 253.216C1795.66 252.875 1785.33 254.411 1775.6 257.824C1766.05 261.067 1758.2 265.845 1752.05 272.16C1746.08 278.475 1743.09 285.984 1743.09 294.688C1743.09 302.709 1745.57 309.28 1750.52 314.4C1755.47 319.349 1761.69 323.36 1769.2 326.432C1776.71 329.504 1784.39 332.064 1792.24 334.112L1856.24 351.52C1865.8 354.08 1876.38 357.493 1887.99 361.76C1899.59 365.856 1910.69 371.659 1921.27 379.168C1932.02 386.507 1940.81 396.235 1947.64 408.352C1954.63 420.469 1958.13 435.829 1958.13 454.432C1958.13 474.229 1953.95 491.552 1945.59 506.4C1937.4 521.077 1926.3 533.28 1912.31 543.008C1898.31 552.565 1882.44 559.733 1864.69 564.512C1847.11 569.291 1828.94 571.68 1810.16 571.68ZM2115.78 571.68C2087.1 571.68 2062.53 565.28 2042.05 552.48C2021.57 539.68 2005.87 522.272 1994.94 500.256C1984.02 478.24 1978.56 453.408 1978.56 425.76C1978.56 397.771 1984.19 372.768 1995.46 350.752C2006.89 328.736 2022.93 311.413 2043.58 298.784C2064.23 286.155 2088.64 279.84 2116.8 279.84C2149.4 279.84 2176.7 288.117 2198.72 304.672C2220.91 321.056 2235.07 343.499 2241.22 372L2171.58 390.432C2167.49 376.096 2160.32 364.917 2150.08 356.896C2140.01 348.875 2128.58 344.864 2115.78 344.864C2101.1 344.864 2089.07 348.448 2079.68 355.616C2070.29 362.613 2063.38 372.256 2058.94 384.544C2054.51 396.661 2052.29 410.4 2052.29 425.76C2052.29 449.824 2057.58 469.365 2068.16 484.384C2078.91 499.232 2094.78 506.656 2115.78 506.656C2131.48 506.656 2143.42 503.072 2151.62 495.904C2159.81 488.736 2165.95 478.496 2170.05 465.184L2241.22 480.032C2233.37 509.387 2218.52 532 2196.67 547.872C2174.83 563.744 2147.86 571.68 2115.78 571.68ZM2271.94 564V287.52H2333.38V355.104L2326.72 346.4C2330.31 336.843 2335.09 328.139 2341.06 320.288C2347.03 312.437 2354.37 305.952 2363.08 300.832C2369.73 296.736 2376.99 293.579 2384.84 291.36C2392.69 288.971 2400.79 287.52 2409.16 287.008C2417.52 286.325 2425.88 286.496 2434.24 287.52V352.544C2426.56 350.155 2417.6 349.387 2407.36 350.24C2397.29 350.923 2388.16 353.227 2379.97 357.152C2371.78 360.907 2364.87 365.941 2359.24 372.256C2353.6 378.4 2349.34 385.739 2346.44 394.272C2343.53 402.635 2342.08 412.107 2342.08 422.688V564H2271.94ZM2467.58 249.12V187.68H2537.21V249.12H2467.58ZM2467.58 564V287.52H2537.21V564H2467.58ZM2729.16 571.68C2701.68 571.68 2678.73 565.28 2660.3 552.48C2641.86 539.68 2627.95 522.272 2618.57 500.256C2609.35 478.24 2604.74 453.408 2604.74 425.76C2604.74 398.112 2609.35 373.28 2618.57 351.264C2627.78 329.248 2641.35 311.84 2659.27 299.04C2677.19 286.24 2699.29 279.84 2725.58 279.84C2752.03 279.84 2775.07 286.155 2794.7 298.784C2814.32 311.413 2829.51 328.736 2840.26 350.752C2851.19 372.597 2856.65 397.6 2856.65 425.76C2856.65 453.408 2851.27 478.24 2840.52 500.256C2829.94 522.272 2815.09 539.68 2795.98 552.48C2776.86 565.28 2754.59 571.68 2729.16 571.68ZM2592.97 686.88V287.52H2654.41V476.96H2663.11V686.88H2592.97ZM2717.9 509.728C2732.91 509.728 2745.2 505.973 2754.76 498.464C2764.32 490.955 2771.4 480.885 2776.01 468.256C2780.62 455.456 2782.92 441.291 2782.92 425.76C2782.92 410.4 2780.53 396.405 2775.75 383.776C2770.97 370.976 2763.55 360.821 2753.48 353.312C2743.58 345.632 2730.87 341.792 2715.34 341.792C2700.83 341.792 2689.05 345.291 2680.01 352.288C2671.13 359.285 2664.65 369.099 2660.55 381.728C2656.46 394.357 2654.41 409.035 2654.41 425.76C2654.41 442.485 2656.46 457.163 2660.55 469.792C2664.65 482.421 2671.3 492.235 2680.52 499.232C2689.91 506.229 2702.37 509.728 2717.9 509.728ZM3058.39 564C3039.27 567.584 3020.5 569.12 3002.07 568.608C2983.81 568.267 2967.42 565.109 2952.92 559.136C2938.58 552.992 2927.66 543.179 2920.15 529.696C2913.32 517.067 2909.74 504.267 2909.4 491.296C2909.05 478.155 2908.88 463.307 2908.88 446.752V210.72H2978.52V442.656C2978.52 453.408 2978.6 463.136 2978.77 471.84C2979.11 480.373 2980.91 487.2 2984.15 492.32C2990.29 502.048 3000.11 507.339 3013.59 508.192C3027.07 509.045 3042 508.363 3058.39 506.144V564ZM2861.78 341.28V287.52H3058.39V341.28H2861.78ZM3207.55 571.68C3172.74 571.68 3144.58 563.829 3123.07 548.128C3101.74 532.256 3088.77 509.899 3084.16 481.056L3155.33 470.304C3158.23 483.275 3164.63 493.429 3174.53 500.768C3184.6 508.107 3197.31 511.776 3212.67 511.776C3225.3 511.776 3235.03 509.387 3241.86 504.608C3248.68 499.659 3252.1 492.832 3252.1 484.128C3252.1 478.667 3250.73 474.315 3248 471.072C3245.27 467.659 3239.13 464.331 3229.57 461.088C3220.18 457.845 3205.5 453.579 3185.54 448.288C3163.01 442.485 3145 436 3131.52 428.832C3118.04 421.664 3108.31 413.131 3102.34 403.232C3096.36 393.163 3093.38 381.045 3093.38 366.88C3093.38 349.131 3097.9 333.771 3106.94 320.8C3115.99 307.659 3128.7 297.589 3145.09 290.592C3161.64 283.424 3181.1 279.84 3203.46 279.84C3225.13 279.84 3244.33 283.168 3261.06 289.824C3277.78 296.48 3291.26 305.952 3301.5 318.24C3311.91 330.528 3318.31 345.035 3320.7 361.76L3249.54 374.56C3248.34 364.32 3243.9 356.213 3236.22 350.24C3228.54 344.267 3218.13 340.768 3204.99 339.744C3192.19 338.891 3181.87 340.597 3174.02 344.864C3166.34 349.131 3162.5 355.275 3162.5 363.296C3162.5 368.075 3164.12 372.085 3167.36 375.328C3170.77 378.571 3177.69 381.899 3188.1 385.312C3198.68 388.725 3214.72 393.163 3236.22 398.624C3257.22 404.085 3274.03 410.485 3286.66 417.824C3299.46 424.992 3308.76 433.696 3314.56 443.936C3320.36 454.005 3323.26 466.208 3323.26 480.544C3323.26 508.875 3313.02 531.147 3292.54 547.36C3272.06 563.573 3243.73 571.68 3207.55 571.68Z" fill="white"/>
<path d="M186.795 144.968L265.274 223.447C345.471 303.644 345.471 433.675 265.274 513.883L186.023 593.135L90.7036 497.805L171.607 416.901C198.253 390.256 198.253 347.053 171.607 320.408L91.4755 240.287L186.795 144.968Z" fill="#155EEF"/>
<path d="M199.09 604.658L372.149 431.599C400.11 403.638 445.454 403.638 473.415 431.599L647.246 605.43L551.927 700.749L422.787 571.609L294.409 699.988L199.09 604.669V604.658Z" fill="#155EEF"/>
<path d="M646.485 134.205L473.426 307.264C445.465 335.225 400.121 335.225 372.16 307.264L198.318 133.433L293.648 38.1143L422.788 167.254L551.166 38.8861L646.485 134.205Z" fill="#155EEF"/>
</svg>
